<svg width="38" height="41" viewBox="0 0 38 41" fill="none" xmlns="http://www.w3.org/2000/svg">
<g clip-path="url(#clip0_1_304)">
<path d="M32.5648 13.2634C32.5217 12.5159 31.9265 11.9332 31.2076 11.9345H25.779V7.69345C25.779 3.78963 22.741 0.625 18.9933 0.625C15.2457 0.625 12.2076 3.78963 12.2076 7.69345V11.9345H6.77903C6.06017 11.9332 5.46498 12.5159 5.42189 13.2634L4.2276 35.7269C4.1002 38.0654 5.81682 40.0688 8.06179 40.2015C8.14076 40.2062 8.2199 40.2085 8.29903 40.2083H29.7012C31.9498 40.2121 33.7755 38.3164 33.7791 35.9741C33.7793 35.8916 33.7771 35.8092 33.7726 35.7269L32.5648 13.2634ZM14.9219 7.69345C14.9219 5.35114 16.7447 3.45238 18.9933 3.45238C21.2419 3.45238 23.0647 5.35114 23.0647 7.69345V11.9345H14.9219V7.69345Z" fill="white"/>
</g>
<defs>
<clipPath id="clip0_1_304">
<rect width="38" height="39.5833" fill="white" transform="translate(0 0.625)"/>
</clipPath>
</defs>
</svg>
